<?xml version="1.0" encoding="UTF-8" ?>
<svg version="1.1" width="23" height="28" xmlns="http://www.w3.org/2000/svg" shape-rendering="crispEdges">
<rect x="11" y="0" width="1" height="1" fill="#1A1616" />
<rect x="12" y="0" width="1" height="1" fill="#1A1616" />
<rect x="13" y="0" width="1" height="1" fill="#EDE768" />
<rect x="14" y="0" width="1" height="1" fill="#EDE768" />
<rect x="15" y="0" width="1" height="1" fill="#1A1616" />
<rect x="16" y="0" width="1" height="1" fill="#EDE768" />
<rect x="17" y="0" width="1" height="1" fill="#1A1616" />
<rect x="9" y="1" width="1" height="1" fill="#1A1616" />
<rect x="10" y="1" width="1" height="1" fill="#EDE768" />
<rect x="11" y="1" width="1" height="1" fill="#F2EEA5" />
<rect x="12" y="1" width="1" height="1" fill="#F2EEA5" />
<rect x="13" y="1" width="1" height="1" fill="#F2EEA5" />
<rect x="14" y="1" width="1" height="1" fill="#EDE768" />
<rect x="15" y="1" width="1" height="1" fill="#F2EEA5" />
<rect x="16" y="1" width="1" height="1" fill="#F2EEA5" />
<rect x="17" y="1" width="1" height="1" fill="#F2EEA5" />
<rect x="18" y="1" width="1" height="1" fill="#EDE768" />
<rect x="19" y="1" width="1" height="1" fill="#1A1616" />
<rect x="8" y="2" width="1" height="1" fill="#1A1616" />
<rect x="9" y="2" width="1" height="1" fill="#F6E5F1" />
<rect x="10" y="2" width="1" height="1" fill="#EDE768" />
<rect x="11" y="2" width="1" height="1" fill="#F2EEA5" />
<rect x="12" y="2" width="1" height="1" fill="#F2EEA5" />
<rect x="13" y="2" width="1" height="1" fill="#F2EEA5" />
<rect x="14" y="2" width="1" height="1" fill="#F2EEA5" />
<rect x="15" y="2" width="1" height="1" fill="#F2EEA5" />
<rect x="16" y="2" width="1" height="1" fill="#F2EEA5" />
<rect x="17" y="2" width="1" height="1" fill="#F2EEA5" />
<rect x="18" y="2" width="1" height="1" fill="#F2EEA5" />
<rect x="19" y="2" width="1" height="1" fill="#F2EEA5" />
<rect x="20" y="2" width="1" height="1" fill="#1A1616" />
<rect x="7" y="3" width="1" height="1" fill="#1A1616" />
<rect x="8" y="3" width="1" height="1" fill="#F6E5F1" />
<rect x="9" y="3" width="1" height="1" fill="#F6E5F1" />
<rect x="10" y="3" width="1" height="1" fill="#F6E5F1" />
<rect x="11" y="3" width="1" height="1" fill="#EDE768" />
<rect x="12" y="3" width="1" height="1" fill="#F2EEA5" />
<rect x="13" y="3" width="1" height="1" fill="#F2EEA5" />
<rect x="14" y="3" width="1" height="1" fill="#F2EEA5" />
<rect x="15" y="3" width="1" height="1" fill="#F2EEA5" />
<rect x="16" y="3" width="1" height="1" fill="#F2EEA5" />
<rect x="17" y="3" width="1" height="1" fill="#F2EEA5" />
<rect x="18" y="3" width="1" height="1" fill="#F2EEA5" />
<rect x="19" y="3" width="1" height="1" fill="#F2EEA5" />
<rect x="20" y="3" width="1" height="1" fill="#F2EEA5" />
<rect x="21" y="3" width="1" height="1" fill="#1A1616" />
<rect x="7" y="4" width="1" height="1" fill="#FFCEEF" />
<rect x="8" y="4" width="1" height="1" fill="#F6E5F1" />
<rect x="9" y="4" width="1" height="1" fill="#F6E5F1" />
<rect x="10" y="4" width="1" height="1" fill="#F6E5F1" />
<rect x="11" y="4" width="1" height="1" fill="#EDE768" />
<rect x="12" y="4" width="1" height="1" fill="#F2EEA5" />
<rect x="13" y="4" width="1" height="1" fill="#F2EEA5" />
<rect x="14" y="4" width="1" height="1" fill="#F2EEA5" />
<rect x="15" y="4" width="1" height="1" fill="#F2EEA5" />
<rect x="16" y="4" width="1" height="1" fill="#F2EEA5" />
<rect x="17" y="4" width="1" height="1" fill="#F2EEA5" />
<rect x="18" y="4" width="1" height="1" fill="#F2EEA5" />
<rect x="19" y="4" width="1" height="1" fill="#F2EEA5" />
<rect x="20" y="4" width="1" height="1" fill="#F2EEA5" />
<rect x="21" y="4" width="1" height="1" fill="#EDE768" />
<rect x="6" y="5" width="1" height="1" fill="#1A1616" />
<rect x="7" y="5" width="1" height="1" fill="#F6E5F1" />
<rect x="8" y="5" width="1" height="1" fill="#F6E5F1" />
<rect x="9" y="5" width="1" height="1" fill="#F6E5F1" />
<rect x="10" y="5" width="1" height="1" fill="#EDE768" />
<rect x="11" y="5" width="1" height="1" fill="#F2EEA5" />
<rect x="12" y="5" width="1" height="1" fill="#F2EEA5" />
<rect x="13" y="5" width="1" height="1" fill="#F2EEA5" />
<rect x="14" y="5" width="1" height="1" fill="#F2EEA5" />
<rect x="15" y="5" width="1" height="1" fill="#F2EEA5" />
<rect x="16" y="5" width="1" height="1" fill="#F2EEA5" />
<rect x="17" y="5" width="1" height="1" fill="#F2EEA5" />
<rect x="18" y="5" width="1" height="1" fill="#F2EEA5" />
<rect x="19" y="5" width="1" height="1" fill="#F2EEA5" />
<rect x="20" y="5" width="1" height="1" fill="#F2EEA5" />
<rect x="21" y="5" width="1" height="1" fill="#F2EEA5" />
<rect x="22" y="5" width="1" height="1" fill="#EDE768" />
<rect x="6" y="6" width="1" height="1" fill="#FFCEEF" />
<rect x="7" y="6" width="1" height="1" fill="#F6E5F1" />
<rect x="8" y="6" width="1" height="1" fill="#F6E5F1" />
<rect x="9" y="6" width="1" height="1" fill="#F6E5F1" />
<rect x="10" y="6" width="1" height="1" fill="#EDE768" />
<rect x="11" y="6" width="1" height="1" fill="#F2EEA5" />
<rect x="12" y="6" width="1" height="1" fill="#F2EEA5" />
<rect x="13" y="6" width="1" height="1" fill="#F2EEA5" />
<rect x="14" y="6" width="1" height="1" fill="#F2EEA5" />
<rect x="15" y="6" width="1" height="1" fill="#F2EEA5" />
<rect x="16" y="6" width="1" height="1" fill="#F2EEA5" />
<rect x="17" y="6" width="1" height="1" fill="#EDE768" />
<rect x="18" y="6" width="1" height="1" fill="#F2EEA5" />
<rect x="19" y="6" width="1" height="1" fill="#F2EEA5" />
<rect x="20" y="6" width="1" height="1" fill="#F2EEA5" />
<rect x="21" y="6" width="1" height="1" fill="#F2EEA5" />
<rect x="22" y="6" width="1" height="1" fill="#EDE768" />
<rect x="6" y="7" width="1" height="1" fill="#1A1616" />
<rect x="7" y="7" width="1" height="1" fill="#FFCEEF" />
<rect x="8" y="7" width="1" height="1" fill="#F6E5F1" />
<rect x="9" y="7" width="1" height="1" fill="#F6E5F1" />
<rect x="10" y="7" width="1" height="1" fill="#EDE768" />
<rect x="11" y="7" width="1" height="1" fill="#EDE768" />
<rect x="12" y="7" width="1" height="1" fill="#F2EEA5" />
<rect x="13" y="7" width="1" height="1" fill="#F2EEA5" />
<rect x="14" y="7" width="1" height="1" fill="#F2EEA5" />
<rect x="15" y="7" width="1" height="1" fill="#F2EEA5" />
<rect x="16" y="7" width="1" height="1" fill="#F2EEA5" />
<rect x="17" y="7" width="1" height="1" fill="#EDE768" />
<rect x="18" y="7" width="1" height="1" fill="#EDE768" />
<rect x="19" y="7" width="1" height="1" fill="#F2EEA5" />
<rect x="20" y="7" width="1" height="1" fill="#F2EEA5" />
<rect x="21" y="7" width="1" height="1" fill="#F2EEA5" />
<rect x="22" y="7" width="1" height="1" fill="#EDE768" />
<rect x="6" y="8" width="1" height="1" fill="#FFCEEF" />
<rect x="7" y="8" width="1" height="1" fill="#FFCEEF" />
<rect x="8" y="8" width="1" height="1" fill="#F6E5F1" />
<rect x="9" y="8" width="1" height="1" fill="#F6E5F1" />
<rect x="10" y="8" width="1" height="1" fill="#FFCEEF" />
<rect x="11" y="8" width="1" height="1" fill="#EDE768" />
<rect x="12" y="8" width="1" height="1" fill="#EDE768" />
<rect x="13" y="8" width="1" height="1" fill="#F2EEA5" />
<rect x="14" y="8" width="1" height="1" fill="#F2EEA5" />
<rect x="15" y="8" width="1" height="1" fill="#F2EEA5" />
<rect x="16" y="8" width="1" height="1" fill="#EDE768" />
<rect x="17" y="8" width="1" height="1" fill="#EDE768" />
<rect x="18" y="8" width="1" height="1" fill="#F2EEA5" />
<rect x="19" y="8" width="1" height="1" fill="#F2EEA5" />
<rect x="20" y="8" width="1" height="1" fill="#F2EEA5" />
<rect x="21" y="8" width="1" height="1" fill="#EDE768" />
<rect x="22" y="8" width="1" height="1" fill="#EDE768" />
<rect x="6" y="9" width="1" height="1" fill="#1A1616" />
<rect x="7" y="9" width="1" height="1" fill="#FFCEEF" />
<rect x="8" y="9" width="1" height="1" fill="#F6E5F1" />
<rect x="9" y="9" width="1" height="1" fill="#FFCEEF" />
<rect x="10" y="9" width="1" height="1" fill="#FFCEEF" />
<rect x="11" y="9" width="1" height="1" fill="#EDE768" />
<rect x="12" y="9" width="1" height="1" fill="#EDE768" />
<rect x="13" y="9" width="1" height="1" fill="#EDE768" />
<rect x="14" y="9" width="1" height="1" fill="#EDE768" />
<rect x="15" y="9" width="1" height="1" fill="#F2EEA5" />
<rect x="16" y="9" width="1" height="1" fill="#EDE768" />
<rect x="17" y="9" width="1" height="1" fill="#EDE768" />
<rect x="18" y="9" width="1" height="1" fill="#F2EEA5" />
<rect x="19" y="9" width="1" height="1" fill="#F2EEA5" />
<rect x="20" y="9" width="1" height="1" fill="#F2EEA5" />
<rect x="21" y="9" width="1" height="1" fill="#EDE768" />
<rect x="22" y="9" width="1" height="1" fill="#1A1616" />
<rect x="6" y="10" width="1" height="1" fill="#1A1616" />
<rect x="7" y="10" width="1" height="1" fill="#FFCEEF" />
<rect x="8" y="10" width="1" height="1" fill="#FFCEEF" />
<rect x="9" y="10" width="1" height="1" fill="#FFCEEF" />
<rect x="10" y="10" width="1" height="1" fill="#F2D6BB" />
<rect x="11" y="10" width="1" height="1" fill="#F2D6BB" />
<rect x="12" y="10" width="1" height="1" fill="#F2D6BB" />
<rect x="13" y="10" width="1" height="1" fill="#EDE768" />
<rect x="14" y="10" width="1" height="1" fill="#EDE768" />
<rect x="15" y="10" width="1" height="1" fill="#EDE768" />
<rect x="16" y="10" width="1" height="1" fill="#EDE768" />
<rect x="17" y="10" width="1" height="1" fill="#EDE768" />
<rect x="18" y="10" width="1" height="1" fill="#EDE768" />
<rect x="19" y="10" width="1" height="1" fill="#F2EEA5" />
<rect x="20" y="10" width="1" height="1" fill="#EDE768" />
<rect x="21" y="10" width="1" height="1" fill="#EDE768" />
<rect x="22" y="10" width="1" height="1" fill="#1A1616" />
<rect x="6" y="11" width="1" height="1" fill="#1A1616" />
<rect x="7" y="11" width="1" height="1" fill="#FFCEEF" />
<rect x="8" y="11" width="1" height="1" fill="#F2D6BB" />
<rect x="9" y="11" width="1" height="1" fill="#FFCEEF" />
<rect x="10" y="11" width="1" height="1" fill="#F2D6BB" />
<rect x="11" y="11" width="1" height="1" fill="#000000" />
<rect x="12" y="11" width="1" height="1" fill="#F2D6BB" />
<rect x="13" y="11" width="1" height="1" fill="#EDE768" />
<rect x="14" y="11" width="1" height="1" fill="#EDE768" />
<rect x="15" y="11" width="1" height="1" fill="#F2D6BB" />
<rect x="16" y="11" width="1" height="1" fill="#F2D6BB" />
<rect x="17" y="11" width="1" height="1" fill="#EDE768" />
<rect x="18" y="11" width="1" height="1" fill="#EDE768" />
<rect x="19" y="11" width="1" height="1" fill="#EDE768" />
<rect x="20" y="11" width="1" height="1" fill="#EDE768" />
<rect x="21" y="11" width="1" height="1" fill="#EDE768" />
<rect x="22" y="11" width="1" height="1" fill="#1A1616" />
<rect x="7" y="12" width="1" height="1" fill="#1A1616" />
<rect x="8" y="12" width="1" height="1" fill="#F2D6BB" />
<rect x="9" y="12" width="1" height="1" fill="#F2D6BB" />
<rect x="10" y="12" width="1" height="1" fill="#F2D6BB" />
<rect x="11" y="12" width="1" height="1" fill="#000000" />
<rect x="12" y="12" width="1" height="1" fill="#F2D6BB" />
<rect x="13" y="12" width="1" height="1" fill="#EDE768" />
<rect x="14" y="12" width="1" height="1" fill="#F2D6BB" />
<rect x="15" y="12" width="1" height="1" fill="#EEC39A" />
<rect x="16" y="12" width="1" height="1" fill="#F2D6BB" />
<rect x="17" y="12" width="1" height="1" fill="#EDE768" />
<rect x="18" y="12" width="1" height="1" fill="#EEC39A" />
<rect x="19" y="12" width="1" height="1" fill="#EDE768" />
<rect x="20" y="12" width="1" height="1" fill="#EDE768" />
<rect x="21" y="12" width="1" height="1" fill="#1A1616" />
<rect x="8" y="13" width="1" height="1" fill="#1A1616" />
<rect x="9" y="13" width="1" height="1" fill="#F2D6BB" />
<rect x="10" y="13" width="1" height="1" fill="#F2D6BB" />
<rect x="11" y="13" width="1" height="1" fill="#F2D6BB" />
<rect x="12" y="13" width="1" height="1" fill="#F2D6BB" />
<rect x="13" y="13" width="1" height="1" fill="#F2D6BB" />
<rect x="14" y="13" width="1" height="1" fill="#F2D6BB" />
<rect x="15" y="13" width="1" height="1" fill="#EEC39A" />
<rect x="16" y="13" width="1" height="1" fill="#F2D6BB" />
<rect x="17" y="13" width="1" height="1" fill="#EDE768" />
<rect x="18" y="13" width="1" height="1" fill="#EEC39A" />
<rect x="19" y="13" width="1" height="1" fill="#EDE768" />
<rect x="20" y="13" width="1" height="1" fill="#1A1616" />
<rect x="0" y="14" width="1" height="1" fill="#171D2D" />
<rect x="1" y="14" width="1" height="1" fill="#475063" />
<rect x="2" y="14" width="1" height="1" fill="#7498B8" />
<rect x="3" y="14" width="1" height="1" fill="#7498B8" />
<rect x="4" y="14" width="1" height="1" fill="#475063" />
<rect x="5" y="14" width="1" height="1" fill="#171D2D" />
<rect x="9" y="14" width="1" height="1" fill="#1A1616" />
<rect x="10" y="14" width="1" height="1" fill="#EEC39A" />
<rect x="11" y="14" width="1" height="1" fill="#EEC39A" />
<rect x="12" y="14" width="1" height="1" fill="#F2D6BB" />
<rect x="13" y="14" width="1" height="1" fill="#F2D6BB" />
<rect x="14" y="14" width="1" height="1" fill="#F2D6BB" />
<rect x="15" y="14" width="1" height="1" fill="#F2D6BB" />
<rect x="16" y="14" width="1" height="1" fill="#F2D6BB" />
<rect x="17" y="14" width="1" height="1" fill="#EEC39A" />
<rect x="18" y="14" width="1" height="1" fill="#EEC39A" />
<rect x="19" y="14" width="1" height="1" fill="#1A1616" />
<rect x="0" y="15" width="1" height="1" fill="#040711" />
<rect x="1" y="15" width="1" height="1" fill="#171D2D" />
<rect x="2" y="15" width="1" height="1" fill="#171D2D" />
<rect x="3" y="15" width="1" height="1" fill="#040711" />
<rect x="4" y="15" width="1" height="1" fill="#040711" />
<rect x="5" y="15" width="1" height="1" fill="#475063" />
<rect x="6" y="15" width="1" height="1" fill="#171D2D" />
<rect x="7" y="15" width="1" height="1" fill="#040711" />
<rect x="11" y="15" width="1" height="1" fill="#1A1616" />
<rect x="12" y="15" width="1" height="1" fill="#EEC39A" />
<rect x="13" y="15" width="1" height="1" fill="#EEC39A" />
<rect x="14" y="15" width="1" height="1" fill="#724530" />
<rect x="15" y="15" width="1" height="1" fill="#724530" />
<rect x="16" y="15" width="1" height="1" fill="#1A1616" />
<rect x="2" y="16" width="1" height="1" fill="#040711" />
<rect x="4" y="16" width="1" height="1" fill="#1F1209" />
<rect x="5" y="16" width="1" height="1" fill="#8A331C" />
<rect x="6" y="16" width="1" height="1" fill="#171D2D" />
<rect x="7" y="16" width="1" height="1" fill="#1A1616" />
<rect x="11" y="16" width="1" height="1" fill="#1A1616" />
<rect x="12" y="16" width="1" height="1" fill="#847E87" />
<rect x="13" y="16" width="1" height="1" fill="#1A1616" />
<rect x="14" y="16" width="1" height="1" fill="#724530" />
<rect x="15" y="16" width="1" height="1" fill="#724530" />
<rect x="16" y="16" width="1" height="1" fill="#1A1616" />
<rect x="3" y="17" width="1" height="1" fill="#040711" />
<rect x="4" y="17" width="1" height="1" fill="#1F1209" />
<rect x="5" y="17" width="1" height="1" fill="#4B1E12" />
<rect x="6" y="17" width="1" height="1" fill="#8A331C" />
<rect x="7" y="17" width="1" height="1" fill="#171D2D" />
<rect x="8" y="17" width="1" height="1" fill="#1A1616" />
<rect x="9" y="17" width="1" height="1" fill="#1A1616" />
<rect x="10" y="17" width="1" height="1" fill="#1A1616" />
<rect x="11" y="17" width="1" height="1" fill="#1A1616" />
<rect x="12" y="17" width="1" height="1" fill="#EEC39A" />
<rect x="13" y="17" width="1" height="1" fill="#1A1616" />
<rect x="14" y="17" width="1" height="1" fill="#724530" />
<rect x="15" y="17" width="1" height="1" fill="#724530" />
<rect x="16" y="17" width="1" height="1" fill="#724530" />
<rect x="17" y="17" width="1" height="1" fill="#1A1616" />
<rect x="5" y="18" width="1" height="1" fill="#EEC39A" />
<rect x="6" y="18" width="1" height="1" fill="#4B1E12" />
<rect x="7" y="18" width="1" height="1" fill="#040711" />
<rect x="8" y="18" width="1" height="1" fill="#724530" />
<rect x="9" y="18" width="1" height="1" fill="#724530" />
<rect x="10" y="18" width="1" height="1" fill="#724530" />
<rect x="11" y="18" width="1" height="1" fill="#724530" />
<rect x="12" y="18" width="1" height="1" fill="#1A1616" />
<rect x="13" y="18" width="1" height="1" fill="#724530" />
<rect x="14" y="18" width="1" height="1" fill="#1A1616" />
<rect x="15" y="18" width="1" height="1" fill="#724530" />
<rect x="16" y="18" width="1" height="1" fill="#724530" />
<rect x="17" y="18" width="1" height="1" fill="#1A1616" />
<rect x="6" y="19" width="1" height="1" fill="#EEC39A" />
<rect x="7" y="19" width="1" height="1" fill="#040711" />
<rect x="8" y="19" width="1" height="1" fill="#1A1616" />
<rect x="9" y="19" width="1" height="1" fill="#1A1616" />
<rect x="10" y="19" width="1" height="1" fill="#1A1616" />
<rect x="11" y="19" width="1" height="1" fill="#724530" />
<rect x="12" y="19" width="1" height="1" fill="#1A1616" />
<rect x="13" y="19" width="1" height="1" fill="#724530" />
<rect x="14" y="19" width="1" height="1" fill="#1A1616" />
<rect x="15" y="19" width="1" height="1" fill="#724530" />
<rect x="16" y="19" width="1" height="1" fill="#724530" />
<rect x="17" y="19" width="1" height="1" fill="#1A1616" />
<rect x="10" y="20" width="1" height="1" fill="#1A1616" />
<rect x="11" y="20" width="1" height="1" fill="#724530" />
<rect x="12" y="20" width="1" height="1" fill="#724530" />
<rect x="13" y="20" width="1" height="1" fill="#724530" />
<rect x="14" y="20" width="1" height="1" fill="#1A1616" />
<rect x="15" y="20" width="1" height="1" fill="#EEC39A" />
<rect x="16" y="20" width="1" height="1" fill="#1A1616" />
<rect x="17" y="20" width="1" height="1" fill="#1A1616" />
<rect x="10" y="21" width="1" height="1" fill="#FFFFFF" />
<rect x="11" y="21" width="1" height="1" fill="#847E87" />
<rect x="12" y="21" width="1" height="1" fill="#FFFFFF" />
<rect x="13" y="21" width="1" height="1" fill="#FFFFFF" />
<rect x="14" y="21" width="1" height="1" fill="#1A1616" />
<rect x="15" y="21" width="1" height="1" fill="#EEC39A" />
<rect x="16" y="21" width="1" height="1" fill="#1A1616" />
<rect x="17" y="21" width="1" height="1" fill="#FFFFFF" />
<rect x="10" y="22" width="1" height="1" fill="#1A1616" />
<rect x="11" y="22" width="1" height="1" fill="#847E87" />
<rect x="12" y="22" width="1" height="1" fill="#393229" />
<rect x="13" y="22" width="1" height="1" fill="#393229" />
<rect x="14" y="22" width="1" height="1" fill="#393229" />
<rect x="15" y="22" width="1" height="1" fill="#1A1616" />
<rect x="16" y="22" width="1" height="1" fill="#393229" />
<rect x="17" y="22" width="1" height="1" fill="#1A1616" />
<rect x="10" y="23" width="1" height="1" fill="#1A1616" />
<rect x="11" y="23" width="1" height="1" fill="#393229" />
<rect x="12" y="23" width="1" height="1" fill="#393229" />
<rect x="13" y="23" width="1" height="1" fill="#393229" />
<rect x="14" y="23" width="1" height="1" fill="#393229" />
<rect x="15" y="23" width="1" height="1" fill="#393229" />
<rect x="16" y="23" width="1" height="1" fill="#1A1616" />
<rect x="11" y="24" width="1" height="1" fill="#1A1616" />
<rect x="12" y="24" width="1" height="1" fill="#393229" />
<rect x="13" y="24" width="1" height="1" fill="#1A1616" />
<rect x="14" y="24" width="1" height="1" fill="#393229" />
<rect x="15" y="24" width="1" height="1" fill="#393229" />
<rect x="16" y="24" width="1" height="1" fill="#1A1616" />
<rect x="11" y="25" width="1" height="1" fill="#1A1616" />
<rect x="12" y="25" width="1" height="1" fill="#393229" />
<rect x="13" y="25" width="1" height="1" fill="#1A1616" />
<rect x="14" y="25" width="1" height="1" fill="#1A1616" />
<rect x="15" y="25" width="1" height="1" fill="#393229" />
<rect x="16" y="25" width="1" height="1" fill="#1A1616" />
<rect x="11" y="26" width="1" height="1" fill="#1A1616" />
<rect x="12" y="26" width="1" height="1" fill="#FFFFFF" />
<rect x="13" y="26" width="1" height="1" fill="#1A1616" />
<rect x="14" y="26" width="1" height="1" fill="#1A1616" />
<rect x="15" y="26" width="1" height="1" fill="#FFFFFF" />
<rect x="16" y="26" width="1" height="1" fill="#1A1616" />
<rect x="11" y="27" width="1" height="1" fill="#1A1616" />
<rect x="12" y="27" width="1" height="1" fill="#1A1616" />
<rect x="14" y="27" width="1" height="1" fill="#1A1616" />
<rect x="15" y="27" width="1" height="1" fill="#1A1616" />
</svg>